<?xml version="1.0" encoding="utf-8"?>
<!-- Generator: Adobe Illustrator 16.0.0, SVG Export Plug-In . SVG Version: 6.00 Build 0)  -->
<!DOCTYPE svg PUBLIC "-//W3C//DTD SVG 1.1//EN" "http://www.w3.org/Graphics/SVG/1.1/DTD/svg11.dtd">
<svg version="1.1" id="Layer_1" focusable="false" xmlns="http://www.w3.org/2000/svg" xmlns:xlink="http://www.w3.org/1999/xlink"
	 x="0px" y="0px" width="595.28px" height="595.281px" viewBox="125.982 0 595.28 595.281"
	 enable-background="new 125.982 0 595.28 595.281" xml:space="preserve">
<path fill="#295295" d="M201.285,0h444.674c41.589,0,75.303,33.715,75.303,75.304v519.978H201.285
	c-41.589,0-75.303-33.715-75.303-75.304V75.303C125.982,33.715,159.696,0,201.285,0z"/>
<path opacity="0.5" fill="#008AC4" d="M721.262,75.303C721.269,33.767,687.638,0.072,646.103,0L309.637,595.281h411.625V75.303z"/>
<g>
	<g>
		<polygon fill="#AAAAAA" points="418.978,144.612 533.271,209.207 533.271,167.051 418.978,102.456 		"/>
		<polygon fill="#AAAAAA" points="418.978,144.612 303.263,207.78 303.263,165.624 418.978,102.456 		"/>
		<polygon fill="#FFFFFF" points="417.554,272.379 533.271,209.459 533.271,168.979 417.554,230.22 		"/>
		<polygon fill="#FFFFFF" points="418.978,215.436 395.618,203.061 395.618,162.584 418.978,174.957 		"/>
		<polygon fill="#CCCCCC" points="442.339,162.584 418.978,174.957 418.978,215.434 442.339,203.059 		"/>
		<polygon fill="#CCCCCC" points="303.263,207.78 417.554,272.379 417.554,230.22 303.263,165.624 		"/>
		<polygon fill="#FFFFFF" points="417.554,382.127 533.271,318.51 533.271,277.593 417.554,339.972 		"/>
		<polygon fill="#CCCCCC" points="303.263,317.532 417.554,382.127 417.554,339.972 303.263,275.376 		"/>
		<polygon fill="#CCCCCC" points="417.554,320.834 303.263,256.558 303.263,229.482 417.554,292.116 		"/>
		<polygon fill="#FFFFFF" points="418.267,320.834 532.56,256.558 532.56,229.482 418.267,292.116 		"/>
		<polygon fill="#FFFFFF" points="453.21,362.44 417.554,382.127 417.554,230.362 453.21,211.49 		"/>
		<polygon fill="#CCCCCC" points="338.92,338.112 303.263,317.532 303.263,165.624 338.92,185.777 		"/>
		<polygon fill="#CCCCCC" points="417.554,382.127 381.897,361.975 381.897,210.067 417.554,230.22 		"/>
		<polygon fill="#FFFFFF" points="533.271,318.51 497.615,338.112 496.651,188.51 533.259,168.962 		"/>
	</g>
	<text transform="matrix(1 0 0 1 165.9006 468.2654)"><tspan x="0" y="0" fill="#FFFFFF" font-family="'Lato-Black'" font-size="82.0129">Blocks </tspan><tspan x="265.062" y="0" fill="#CCCCCC" font-family="'Lato-Semibold'" font-size="82.0129">Bakery</tspan></text>
</g>
</svg>
